<svg width="40" height="40" viewBox="0 0 40 40" fill="none" xmlns="http://www.w3.org/2000/svg">
<path d="M17.2077 7.19551C17.9184 4.26816 22.0816 4.26816 22.7923 7.19552C23.2514 9.08655 25.4179 9.98396 27.0797 8.97142C29.6522 7.40398 32.596 10.3478 31.0286 12.9203C30.016 14.5821 30.9135 16.7486 32.8045 17.2077C35.7318 17.9184 35.7318 22.0816 32.8045 22.7923C30.9135 23.2514 30.016 25.4179 31.0286 27.0797C32.596 29.6522 29.6522 32.596 27.0797 31.0286C25.4179 30.016 23.2514 30.9135 22.7923 32.8045C22.0816 35.7318 17.9184 35.7318 17.2077 32.8045C16.7486 30.9135 14.5821 30.016 12.9203 31.0286C10.3478 32.596 7.40398 29.6522 8.97142 27.0797C9.98396 25.4179 9.08655 23.2514 7.19552 22.7923C4.26816 22.0816 4.26816 17.9184 7.19551 17.2077C9.08655 16.7486 9.98396 14.5821 8.97142 12.9203C7.40398 10.3478 10.3478 7.40398 12.9203 8.97141C14.5821 9.98396 16.7486 9.08655 17.2077 7.19551Z" stroke="#111827" stroke-width="1.6" stroke-linecap="round" stroke-linejoin="round"/>
<path d="M25 20C25 22.7614 22.7614 25 20 25C17.2386 25 15 22.7614 15 20C15 17.2386 17.2386 15 20 15C22.7614 15 25 17.2386 25 20Z" stroke="#111827" stroke-width="1.6" stroke-linecap="round" stroke-linejoin="round"/>
</svg>
